<svg xmlns="http://www.w3.org/2000/svg" xml:space="preserve" style="enable-background:new 0 0 600 600"
     viewBox="0 0 600 600"><style>.st1{fill:#b35ca2}.st3{fill:#dd7167}.st4{fill:#914ad3}.st5{fill:#d76e6f}.st6{fill:#eb7852}.st7{fill:#d06a78}.st9{fill:#b95e99}.st10{fill:#d06a79}.st12{fill:#e2735f}.st19{fill:#a755b4}.st21{fill:#a755b5}.st31{fill:#fed77a}.st34{fill:#fef99e}.st35{fill:#febd66}</style>
    <path d="M279.73 123.23c1.73-.11 3.46-.21 5.19-.32.56-.29 1-.78 1.58-1.05 5.43-.55 11.02-2.19 16.25-1.4 8.5 1.28 16.77 4.14 25.14 6.34 15.74 30.36 32.89 59.95 49.15 90.03 1.73 3.19 4.14 5.71 6.4 8.44 1.29 6.11-.55 11.87-2.17 17.6-.89 3.14-3.57 5.11-6.63 4.31-13.25-3.47-26.82-5.62-39.94-9.61-.61-.19-1.06-.79-1.54-1.24-17.08-33.63-36.25-66.13-54.07-99.36-2.05-3.82-6.09-7.52-3.36-12.77l-.04.04c1.19-.97 2.82-.2 4.04-1.01z"
          class="st3" style="fill:#dd7167" transform="translate(9.62 -73.644)"/>
    <path d="M86.23 177.641c-2.5.4-4.99.81-8.41 1.36-4-24.59-7.86-48.34-11.73-72.1-.91-1.24.17-3.01-1.11-4.15v-8.01c1.32-.01 2.64-.01 3.95-.02 3.69-1.49 4.52 1.63 5.73 3.75 9.26 16.33 18.28 32.8 27.28 49.27 3.18 5.82 6.54 11.53 9.71 17.35 1.15 2.11 2.73 4.11 1.73 6.78-8.38 5.06-17.41 7.09-27.15 5.77z"
          class="st1" style="fill:#b35ca2" transform="translate(9.62 26.695)"/>
    <path d="m64.99 102.741 1.11 4.15c-.38.04-.75-.01-1.11-.15z" style="fill:#deb8d6"
          transform="translate(9.62 26.695)"/>
    <path d="M371.83 495.461c-15.78 4.17-31.52 8.45-47.34 12.45-8.32 2.1-16.75 3.75-25.16 5.48-1.46.3-3.12.27-4.58-.09-12.65-3.08-25.28-6.21-37.9-9.43-11.56-2.94-23.08-6-34.62-9.01-2.18-.62-3.29-2.36-3.61-4.31-1.68-10.16-4.17-20.17-5.54-30.38-.18-1.33.16-2.62.97-3.74 4.2-1.91 8.35-.45 12.3.62 21.39 5.79 43.11 10.28 64.46 16.21 3.58.99 6.87.8 10.42-.1 22.55-5.73 45.09-11.47 67.76-16.71 3.14-.73 6.42-2.13 9.69-.22.51.74.95 1.58.79 2.45-2.03 10.99-3.05 22.12-4.59 33.17-.23 1.67-.64 3.6-3.05 3.61z"
          class="st4" style="fill:#914ad3" transform="translate(9.62 26.695)"/>
    <path d="M275.73 23.861c4.66 9.71 8.95 19.61 14.04 29.08 10.68 19.83 21.91 39.37 32.65 59.17 3.97 7.31 7.19 15.03 10.75 22.56-1.49 1.46-3.32 1.15-4.97.66-8.25-2.44-17-2.54-25.14-5.37-3.95-1.38-7.81-.74-11.73-.2-6.12.82-8.62-3.52-10.97-7.89-10.4-19.33-21.22-38.42-31.72-57.69-3.61-6.62-7.31-13.18-10.93-19.79-1.65-3.01-3.98-6.06-2.04-9.89l-.03.05c.82-.58 1.89-.46 2.72-1 12.47-3.22 24.92-6.45 37.37-9.69z"
          class="st5" style="fill:#d76e6f" transform="translate(9.62 26.695)"/>
    <path d="m519.68 154.881-2.55 23.77c-3.56-.31-6.24-.55-8.92-.78-5.85 2.03-11.25-.82-16.79-1.74-5.41-.9-10.77-2.31-15.72-4.85-5.86-5.73-8.24-13.58-12.15-20.48-5.92-10.42-11.84-20.86-17.4-31.49-2.07-3.95-5.02-7.29-7.47-11-1.24-8.18-.84-16.07 3.99-23.2l3.62-11.39c11.35 3.07 22.01 5.95 32.67 8.83-.78 2.52-.1 4.7 1.16 6.97 11.03 19.8 21.95 39.66 32.8 59.56 1.55 2.81 3.25 5.33 6.76 5.8z"
          class="st6" style="fill:#eb7852" transform="translate(9.62 26.695)"/>
    <path d="M235.68 34.521c5.56 11.06 10.88 22.25 16.73 33.14 8.18 15.24 16.77 30.25 25.17 45.37 2.69 4.84 5.34 9.7 8.1 14.73 1.67.11 3.19.22 4.7.32.21 2.9-2.28 3.26-3.98 3.45-11.09 1.2-21.52 5.12-32.3 7.54-.86.19-1.77.11-2.65.07-4.6-.26-6.93-3.42-8.93-7.01-11.53-20.68-23.01-41.39-34.33-62.19-2.95-5.42-6.51-10.56-8.3-16.57-.56-2.96-1.12-5.91-1.92-10.13 13.06-3.02 25.39-5.87 37.71-8.72z"
          class="st7" style="fill:#d06a78" transform="translate(9.62 26.695)"/>
    <path d="M214.57 456.291c2.55 12.86 5.11 25.72 7.66 38.58-.63 1.76-1.27 3.52-2.38 6.61-7.08-2.11-14.26-4.26-21.44-6.4-6.11-10.04-11.11-20.67-16.92-30.88-10.65-18.69-20.72-37.71-31.3-56.44-1.09-1.93-2.11-3.91-2.85-6.01-1.29-3.66-.79-6.59 3.45-7.86 5.12-.25 9.81 1.93 14.78 2.56 11.4 2.61 22.58 6.05 33.96 8.71 4.2.98 7.93 2.46 8.35 7.16 1.12 12.4 5.44 24.13 7.28 36.36.39 2.58 1.43 5.22-.59 7.61z"
          style="fill:#ac57ad" transform="translate(9.62 26.695)"/>
    <path d="M153.46 160.901c-7.23 6.24-14.53 4.26-23.18 6.49-2.63.07-7.18 3-9.74 3.62-1.27.27-2.54.59-3.83.87-1.2.16-2.38.13-3.36-.64-.23-.19-.4-.44-.55-.7-13.49-24.37-26.97-48.75-40.54-73.07-.01-.01-.01-.03-.03-.04-.9-1.55-.24-3.51 1.48-3.96 11.85-3.09 23.71-6.18 35.55-9.27.68-.17 1.4-.08 1.99.28 3.05 1.85 4.13 5.31 5.67 8.19 11.53 21.42 23.6 42.54 35.2 63.91.75 1.35 1.54 2.67 1.34 4.32z"
          class="st9" style="fill:#b95e99" transform="translate(9.62 26.695)"/>
    <path d="M485.43 315.141c-3.9 23.47-7.8 46.94-11.7 70.42-1.05 1.67-2.84 2.05-4.52 2.53-11.94 3.38-23.8 7.04-36.05 9.2-1.99.35-3.95.73-5.71-.7-2.73-7.42.91-14.39 2.1-21.35 3.04-17.87 5.82-35.81 9.63-53.56.65-3.04.79-6.24 4.14-7.81 13.1-2.03 26.22-.55 39.33-.31 1.13 0 2.06.7 2.78 1.58z"
          class="st4" style="fill:#914ad3" transform="translate(9.62 26.695)"/>
    <path d="M467.7 469.871v8.08c-11.05 2.67-22.08 5.33-33.11 7.99-4.66 1.36-5.63-2.68-7.02-5.28-10.27-19.21-21.16-38.07-31.44-57.27-1.58-2.94-3.45-5.71-4.94-8.69-1.29-2.59-2.71-5.21-.98-8.19 11.11-6.09 23.11-8.84 35.64-9.67 6.01 6.64 9.22 14.98 13.55 22.63 9.49 16.77 18.43 33.85 28.3 50.4z"
          class="st10" style="fill:#d06a79" transform="translate(9.62 26.695)"/>
    <path d="M165.19 397.841c-4.93-.91-9.86-1.81-14.79-2.72-6.15.84-12.01-.38-17.72-2.58-3.46-1.7-8.01-.72-10.71-4.3-1.74-10.01-3.54-20.01-5.19-30.03-2.23-13.52-4.33-27.07-6.49-40.6-1.64-3.83.62-5.11 3.78-5.64 3.63-.62 7.29-.29 10.94-.21 8.76.25 17.59-1.33 26.26 1.07 2.77 2.06 3.15 5.19 3.58 8.24 3.17 22.52 7.11 44.92 11.22 67.29.58 3.2 1.66 6.53-.88 9.48z"
          class="st4" style="fill:#914ad3" transform="translate(9.62 26.695)"/>
    <path d="M382.67 124.221c-1.8-1.32-4.3-2.24-5.29-4.01a9496.434 9496.434 0 0 1-47.11-84.95c-1.42-2.59-1.62-5.85-2.38-8.8.89.15 1.78.3 2.67.44.56.34 1.03.85 1.74.93.36-.09.66 0 .91.27 1.18 1.05 2.92.09 4.09 1.15 3.9.53 7.91.66 11.69 1.66 15.9 4.2 31.73 8.65 48.88 13.37-1.53 10.17-3.05 20.26-4.58 30.36 1.94 6.24-.99 11.99-2.01 17.89-.51 2.98-1.51 5.91-2 8.93-.33 1.55-.93 3.05-1.1 4.64-.11.87-.29 1.73-.53 2.57-.41 1.29-.92 2.56-1.31 3.86-.14.5-.33.98-.52 1.46-.48 1.19-.59 2.45-.66 3.71-.05.78-.21 1.55-.44 2.3-.45 1.24-.81 2.51-1.48 3.67-.18.18-.37.36-.57.55z"
          style="fill:#e4755c" transform="translate(9.62 26.695)"/>
    <path d="M475.92 169.551c10.76 2.77 21.53 5.55 32.29 8.32-2.96 19.03-5.98 38.05-8.84 57.1-.58 3.89-.56 7.87-.81 11.81-6.24 4.19-13.22 1.47-19.83 2.15-8.27-.32-16.63 1.23-24.8-1.13-2.87-3.35-1.59-7.31-.83-10.72 4.67-20.94 7.26-42.24 11.27-63.29.37-1.95.51-3.96 1.73-5.66 3.78-3.02 6.63.36 9.82 1.42zm-356.27-.06 7.94-1.26c3.08 3.54 3.97 7.95 4.44 12.35 1.89 17.7 5.56 35.1 8.62 52.61.85 4.85 2.39 10.12-1.64 14.59-13.16 2.06-26.36 1-39.55.56-.87-.03-1.6-.7-2.22-1.35-2.48-15.26-4.98-30.52-7.42-45.79-1.25-7.84-2.4-15.7-3.59-23.55 8.93-2.24 17.86-4.47 26.8-6.71 1.34-.08 2.68-.17 4.02-.25.76-.65 1.95-.33 2.6-1.2z"
          class="st4" style="fill:#914ad3" transform="translate(9.62 26.695)"/>
    <path d="M453.66 246.561c8.32.15 16.64.29 24.96.44 6.21 5.4 8.22 13.42 12.43 20.07 7.19 11.35 11.76 24.28 20.68 34.61l-1.29 12.03c-14.08 1.46-28.18.19-42.25.69-5.33-5.92-8.22-12.92-11.85-19.44-7.32-13.14-14.66-26.28-21.73-39.56-1.56-2.93-4.16-6.15-.46-9.5 6.55-1.28 13.1-2.23 19.51.66z"
          class="st12" style="fill:#e2735f" transform="translate(9.62 26.695)"/>
    <path d="M390.55 407.381c3.18 6.75 6.08 13.65 9.61 20.21 9.13 16.94 18.47 33.78 27.93 50.54 1.64 2.9 4.31 5.22 6.51 7.81-19.32 5.26-38.64 10.54-57.98 15.73-1.17.31-2.54-.09-4.18-.18-.22-2.2-.41-4.12-.6-6.03.88-3.77 2-7.5 2.58-11.32 1.42-9.29 2.59-18.62 3.86-27.94-1.3-1.46-1.47-3.24-1.15-5.01 2.38-13.3 3.5-26.84 7.38-39.86.84-2.84 1.33-6.78 6.04-3.95z"
          style="fill:#ca6782" transform="translate(9.62 26.695)"/>
    <path d="M433.24 247.011c4.04 8.07 7.89 16.24 12.16 24.2 7.53 14.04 15.32 27.95 23.33 42.51h41.72c-5.72.39-11.44.8-17.17 1.15-2.61.16-5.23.19-7.84.28-14.42.02-28.83.04-43.25.05-2.51 1.74-5.38 1.86-8.29 1.86-6.87.01-13.74.04-20.61-.01-11.8-.09-13.44-2.16-11.48-14.05.69-4.17 1.66-8.29 2.81-12.31 3.06-10.73 3.58-21.85 5.46-32.75 2.27-13.27 10.64-17.12 23.16-10.93z"
          style="fill:#db7069" transform="translate(9.62 26.695)"/>
    <path d="M467.7 469.871c-5.09-7.7-10.59-15.16-15.19-23.15-8.3-14.41-16.08-29.12-24-43.75-.94-1.73-1.4-3.71-2.09-5.57.13-.88.45-1.47 1.49-1.01 12.71-3.1 25.41-6.22 38.12-9.28 2.54-.61 5.13-1.04 7.7-1.55h8.68c-.24 2.92-.27 5.25-.65 7.52-2.35 14.32-4.68 28.65-7.22 42.94-1.15 6.47-2.79 12.86-4.2 19.28-.79 1.33-.15 2.97-.95 4.3-.13 1.24-.27 2.48-.4 3.72-.87 1.15.1 2.81-1.09 3.87-.06.89-.13 1.78-.2 2.68z"
          style="fill:#d56d71" transform="translate(9.62 26.695)"/>
    <path d="M153.18 160.211c-6.25-10.66-12.66-21.22-18.7-32-8.23-14.67-16.18-29.5-24.25-44.27v.05c.45-.33.91-.65 1.38-.94 12.26-2.91 24.51-5.83 36.64-8.71 1.37 4.4 2.39 7.67 3.41 10.95 5.11 6.41 4.26 14.43 5.79 21.79.62 2.96.41 6.1 1.25 9.08 1.68 11.88 5.3 23.41 6.44 35.39.88 9.11-3.48 12.29-11.96 8.66z"
          style="fill:#c1638e" transform="translate(9.62 26.695)"/>
    <path d="M125.02 313.711c-3.66.01-7.37-.34-10.95.2-1.42.21-2.53 2.41-3.79 3.7-.57-1.14-1.14-2.28-1.93-3.85H82.67c-2.79-16.61-5.55-32.94-8.25-49.29-.89-5.36-1.6-10.76-2.39-16.14 5.55-1.48 11.22-.36 16.81-.71 2.64.11 3.69 2.1 4.76 4.07 10.06 18.48 20.11 36.96 30.46 55.28 1.15 2.02 2.81 4.2.96 6.74z"
          style="fill:#a956b1" transform="translate(9.62 26.695)"/>
    <path d="M519.68 154.881c-.65.88-1.3 1.75-2.73 3.68-4.1-6.94-7.78-12.86-11.17-18.94-9.59-17.21-19.07-34.48-28.58-51.75-1.29-2.33-2.26-4.69 1.76-5.33 16.74 4.07 33.48 8.13 51.41 12.49-3.24 17.88-6.31 34.86-9.38 51.85-.7 1.35-.13 2.97-.89 4.31z"
          style="fill:#f17b49" transform="translate(9.62 26.695)"/>
    <path d="M133.03 391.141c5.79 1.33 11.58 2.66 17.36 3.99-3.87 1.89-2.54 4.59-1.09 7.25 8.71 15.97 17.46 31.91 26.18 47.88 7.22 13.24 14.45 26.48 21.57 39.78.8 1.5.92 3.36 1.36 5.06l-2.75-.09c-1.26-.78-2.89-.02-4.11-.99-.46.06-.86-.05-1.23-.33-1.14-.86-2.8.09-3.83-1.12l-.07-.03c-.88-.77-2.1-.62-3.07-1.13-.79-.13-1.57-.25-2.36-.38-.91-.55-2.03-.47-2.96-.95-.4.05-.72-.08-.97-.4-5.33-6.11-8.21-13.7-12.08-20.64-12.36-22.13-24.57-44.35-36.75-66.58-1.75-3.2-4.27-6.47-2-10.54 2.14-1.79 4.39-1.93 6.8-.78z"
          class="st19" style="fill:#a755b4" transform="translate(9.62 26.695)"/>
    <path d="M199.89 53.371c5.08 8.47 10.37 16.83 15.19 25.44 9.93 17.73 19.53 35.64 29.52 53.34 1.26 2.23 4 3.62 6.05 5.4-.23 2.32-2.13 2.71-3.82 2.96-7.69 1.15-14.91 4.05-22.39 5.94-8.01 2.02-10.32-.07-12.11-8.29-2.49-11.44-4.74-22.92-7.33-34.34-.1-7.89-2.22-15.49-3.37-23.24-.38-2.57-1.01-5.19.59-7.62-.77-6.52-1.55-13.05-2.33-19.59z"
          style="fill:#ca6780" transform="translate(9.62 26.695)"/>
    <path d="m387.63 102.811 5.67-28.16c8.35 1.58 16.74 3.02 25.05 4.78 8.14 1.72 16.22 3.77 24.33 5.68l-3 24.27c.74 3.18.32 5.91-2.94 7.53-7.68.58-14.79-2.09-21.95-4.15-8.88-2.55-18.25-3.11-26.83-6.82-.86-.97-.81-2.03-.33-3.13zm-185.4-29.84c1.44 10.39 2.89 20.78 4.33 31.17-.72 1.2-1.81 2.05-3.13 2.3-13.7 2.65-26.94 7.19-40.61 9.96-1.94.39-3.95.72-5.83-.37-1.31-7.68-2.61-15.37-3.94-23.05-.44-2.56-.92-5.12-1.39-7.67 16.86-4.11 33.71-8.23 50.57-12.34z"
          class="st4" style="fill:#914ad3" transform="translate(9.62 26.695)"/>
    <path d="M133.03 391.141c-2.19.47-4.37.94-7.79 1.67 5 9.48 9.26 17.92 13.84 26.19 12.01 21.7 24.17 43.31 36.18 65 .94 1.7 1.21 3.77 1.79 5.68l-20.49-4.86c1.05-2.74.25-5.16-1.14-7.59-11.75-20.62-22.92-41.56-34.52-62.27-1.62-2.89-2.42-6.86-6.63-7.64-1.15-6.58-2.3-13.15-3.71-21.25 5.1.97 8.25 1.57 11.39 2.17 3.7.97 7.39 1.93 11.08 2.9z"
          class="st21" style="fill:#a755b5" transform="translate(9.62 26.695)"/>
    <path d="M114.28 407.321c.28-.8.55-1.59 1.29-3.73 2.58 3.85 4.79 6.71 6.52 9.83 11.9 21.42 23.75 42.86 35.46 64.39 1.19 2.19 4.78 5.48-.99 7.01-.37.04-.67-.08-.9-.37-.79-.7-1.98-.44-2.78-1.13-8.56-1.84-17.12-3.68-26.27-5.65l-11-63.66c-.99-1.21-.18-2.86-1.02-4.11-.1-.86-.2-1.72-.31-2.58z"
          style="fill:#a353ba" transform="translate(9.62 26.695)"/>
    <path d="M511.73 301.681c-2.09-1.67-4.95-2.91-6.16-5.08-9.17-16.43-18.01-33.05-26.95-49.61 6.65-.07 13.29-.15 19.94-.22h22.63c-2.45 14.68-4.69 28.17-6.94 41.66-.68 1.16.21 2.75-1.03 3.75l-.07.12c-1.22 1.63.15 3.82-1.17 5.43-.08 1.33-.16 2.64-.25 3.95z"
          style="fill:#e77658" transform="translate(9.62 26.695)"/>
    <path d="M90.4 248.501c-6.12-.05-12.25-.1-18.37-.16 8.4-.45 16.8-.91 25.2-1.36 14.23-.07 28.45-.15 42.68-.22l-.06 1.22c-1.37 1.93-3.52 1.92-5.54 2.23-11.88.31-23.76.09-35.65.15-2.91.03-5.68-.44-8.26-1.86z"
          style="fill:#b66cb6" transform="translate(9.62 26.695)"/>
    <path d="m511.98 297.751 1.17-5.43z" class="st12" style="fill:#e2735f" transform="translate(9.62 26.695)"/>
    <path d="M520.11 151.201c.3-1.44.6-2.87.89-4.31-.3 1.43-.6 2.87-.89 4.31z" class="st6" style="fill:#eb7852"
          transform="translate(9.62 26.695)"/>
    <path d="M513.22 292.191c.34-1.25.69-2.5 1.03-3.75-.34 1.25-.68 2.5-1.03 3.75z" class="st12" style="fill:#e2735f"
          transform="translate(9.62 26.695)"/>
    <path d="m191.55 494.011 4.11.99z" class="st21" style="fill:#a755b5" transform="translate(9.62 26.695)"/>
    <path d="M337.3 29.261c-1.36-.38-2.73-.77-4.09-1.15 1.36.38 2.73.77 4.09 1.15z" class="st3" style="fill:#dd7167"
          transform="translate(9.62 26.695)"/>
    <path d="M279.73 22.891c-1.35.34-2.69.67-4.04 1.01 1.35-.33 2.7-.67 4.04-1.01z" class="st5" style="fill:#d76e6f"
          transform="translate(9.62 26.695)"/>
    <path d="m114.6 409.901 1.02 4.11z" class="st19" style="fill:#a755b4" transform="translate(9.62 26.695)"/>
    <path d="M469.4 459.601c.32-1.43.63-2.87.95-4.3-.32 1.43-.63 2.87-.95 4.3zm-1.49 7.59c.36-1.29.73-2.58 1.09-3.87-.36 1.29-.73 2.58-1.09 3.87z"
          class="st10" style="fill:#d06a79" transform="translate(9.62 26.695)"/>
    <path d="M186.49 492.561c1.28.37 2.56.75 3.83 1.12-1.28-.37-2.55-.74-3.83-1.12z" class="st21" style="fill:#a755b5"
          transform="translate(9.62 26.695)"/>
    <path d="M238.37 33.571c-.91.33-1.82.67-2.72 1 .91-.34 1.82-.67 2.72-1z" class="st7" style="fill:#d06a78"
          transform="translate(9.62 26.695)"/>
    <path d="M152.89 483.321c.93.38 1.85.75 2.78 1.13-.93-.38-1.86-.76-2.78-1.13zm25.13 6.75c.99.32 1.97.63 2.96.95-.98-.31-1.97-.63-2.96-.95zm5.33 1.33c1.02.38 2.05.75 3.07 1.13-1.03-.37-2.05-.75-3.07-1.13z"
          class="st21" style="fill:#a755b5" transform="translate(9.62 26.695)"/>
    <path d="M111.61 83.061c-.46.31-.92.62-1.38.94.46-.31.92-.62 1.38-.94z" class="st9" style="fill:#b95e99"
          transform="translate(9.62 26.695)"/>
    <path d="m332.29 27.831-1.74-.93c.59.31 1.17.62 1.74.93z" class="st3" style="fill:#dd7167"
          transform="translate(9.62 26.695)"/>
    <path d="M286.5 21.521c-.53.35-1.05.7-1.58 1.05.53-.35 1.06-.7 1.58-1.05z" class="st5" style="fill:#d76e6f"
          transform="translate(9.62 26.695)"/>
    <path d="M156.99 116.031c16.52-3.97 33.05-7.93 49.57-11.9 3.09 13.39 6.17 26.77 9.66 41.91 11.19-2.76 22.81-5.63 34.43-8.5 4.24-.93 8.49-1.79 12.7-2.81 9.02-2.18 18.02-4.43 27.03-6.65 10.79-3.45 20.35 3.13 30.65 3.86 4.09.29 8.09 1.79 12.14 2.74 11.08 2.78 22.17 5.57 33.25 8.35 3.95.99 7.91 1.96 12.71 3.15 1.31-8.11 2.42-15.04 3.54-21.96h-.05c1.12-1.16.05-3 1.28-4.12.05-.72.1-1.44.16-2.16.8-1.39-.03-3.23 1.26-4.48l-.04.07c.97-1.19.39-2.69.83-3.99.2-.8.39-1.6.59-2.4.27-.73.38-1.57 1.29-1.86 16.44 3.72 32.88 7.43 49.32 11.15 2.57 5.53.12 10.78-.86 16.12-1.48 8.02-3.54 16-1.92 24.88 8.82 1.52 16.91 5.19 25.44 7.51 2.52.69 5.3.98 7 3.42-2.5 15.23-4.95 30.46-7.52 45.68-1.84 10.86-3.84 21.69-5.77 32.54l-20.42.45h-18.6c-4.13 22.33-8.21 44.42-12.6 68.19h40.15c-4.76 27.07-9.51 54.13-14.27 81.2l-1.49 1.01c-11.96 3.33-23.92 6.65-35.87 9.98h-3.98l-8.3 48.83c-26.22 6.43-52.43 12.87-78.66 19.24-1.87.45-4 .84-5.8.4-20.85-5.08-41.66-10.34-62.48-15.52-5.58-1.39-11.18-2.69-16.77-4.03-2.48-11.4-5.07-22.77-7.37-34.21-.81-4.05-.9-8.24-1.32-12.4-.73-.64-1.3-1.57-2.05-1.75-10.64-2.55-21.31-4.95-31.94-7.53-2.31-.56-4.48-1.7-6.71-2.57-1.67-10.47-3.37-20.95-5.01-31.43-2.74-17.47-5.43-34.95-8.15-52.42 5.06-4.02 10.95-1.78 16.48-2.21 5.65-.45 11.44.88 17.83-1.22-2.52-19.96-4.53-39.84-10.26-59.39-8.93-1.37-17.43-2.4-26.07-2.34-3.44.02-7.17.84-10.1-2v-.07c-2.93-18.98-5.85-37.96-8.81-56.93-1.12-7.21-2.34-14.4-3.52-21.6l25.59-8.01c3.25-.18 6.49-.35 11.28-.62-2.6-15.2-5.04-29.4-7.47-43.6z"
          style="fill:#261e51" transform="translate(9.62 26.695)"/>
    <path d="M466.95 168.341c-7.12-2.16-14.2-4.48-21.37-6.43-4.19-1.14-8.53-1.69-14.37-2.81 1.05-8.77 2-17.63 3.22-26.46.75-5.44 1.9-10.83 2.88-16.24.79-2.35 1.58-4.7 2.37-7.04 3.06 3.74 6.74 7.14 9.06 11.3 8.56 15.36 16.66 30.98 24.99 46.48.5.93 1.46 1.61 2.2 2.41-3-.4-5.99-.81-8.98-1.21z"
          style="fill:#e67658" transform="translate(9.62 26.695)"/>
    <path d="M119.65 169.491c-.87.4-1.74.8-2.6 1.19.87-.4 1.73-.8 2.6-1.19z" class="st1" style="fill:#b35ca2"
          transform="translate(9.62 26.695)"/>
    <path d="m169.05 313.781-17.03.21c-9-.09-18-.19-27-.28-5.75-10.87-11.49-21.75-17.26-32.61-5.77-10.88-11.57-21.74-17.36-32.6l45.3-.21c6.59 8.38 10.57 18.28 15.99 27.35 5.54 9.28 10.42 18.95 15.63 28.42 1.59 2.9 4.37 5.92 1.73 9.72z"
          style="fill:#b05aa6" transform="translate(9.62 26.695)"/>
    <path d="M383.9 120.091c-.43 1.37-.86 2.75-1.28 4.12.43-1.37.85-2.74 1.28-4.12zm1.42-6.63-1.26 4.48c.42-1.5.84-2.99 1.26-4.48zm.79-3.92c-.28 1.33-.55 2.66-.83 3.99.27-1.33.55-2.66.83-3.99zm1.87-4.27-1.29 1.86c.31-1.44.62-2.88.94-4.33.12.83.23 1.65.35 2.47z"
          class="st3" style="fill:#dd7167" transform="translate(9.62 26.695)"/>
    <path d="M169.05 313.781c-4.42-9.11-8.67-18.3-13.28-27.31-6.55-12.8-13.37-25.46-20.07-38.18 1.41-.48 2.81-.97 4.22-1.45h38.34c3.85 22.79 7.48 44.31 11.31 66.95-7.38-.01-13.95-.01-20.52-.01z"
          style="fill:#b65d9e" transform="translate(9.62 26.695)"/>
    <path d="M270.71 216.281c5.27-.38 10.55-.75 15.82-1.13 3.18 1.19 6.66-.38 10.54 1.35 4 4.84 6.56 11.32 9.88 17.28 18.07 32.43 36.07 64.9 53.99 97.41 1.34 2.43 3.49 4.84 1.63 7.99-2.68 2.63-5.37 5.26-8.05 7.89-3.26-.77-4.14-3.71-5.56-6.14-9.12-15.61-17.07-31.87-26.55-47.27v-20.86c-4.12-.25-7.37-.44-10.62-.64-6.33-5.06-8.3-12.91-12.17-19.5-6.49-11.06-12.72-22.29-17.98-32.7-3.89-3.17-8.16-.85-10.93-3.68z"
          style="fill:#feef92" transform="translate(9.62 26.695)"/>
    <path d="M362.56 339.171c-6.04-11.57-11.89-23.25-18.15-34.69-10.11-18.47-20.5-36.78-30.74-55.17-6.03-10.83-11.99-21.7-17.88-32.35-3.32-.65-6.29-1.23-9.26-1.81h14.68c2.53 1.06 5.31-.14 8.15.91 5.12 5.39 7.91 12.54 11.53 19.09 16.44 29.73 32.78 59.52 49.47 89.1.96 1.7 2.32 3.35 1.59 5.56l.03-.04c-.6.35-1.02.87-1.4 1.43-2.67 2.66-5.34 5.31-8.02 7.97z"
          style="fill:#fee486" transform="translate(9.62 26.695)"/>
    <path d="M371.94 329.811c-9.29-16.32-18.69-32.57-27.83-48.97-11.83-21.24-23.46-42.59-35.07-63.72-2.86-.72-5.35-1.35-7.84-1.98h14.68c2.08 1 4.43-.1 7.32 1.18 18.77 32.58 36.36 66.63 55.95 99.56-.18 2.43.55 4.93-.53 7.3-2.22 2.21-4.45 4.42-6.68 6.63z"
          class="st31" style="fill:#fed77a" transform="translate(9.62 26.695)"/>
    <path d="M378.44 315.071c-1.55-1.39-3.61-2.49-4.57-4.21-17.38-31.2-34.62-62.47-51.95-93.84-1.93-.6-3.98-1.23-6.03-1.87h12.01c2.08 1 4.42-.1 7.01 1.03 5 6.26 8.34 14.05 12.52 21.31 10.52 18.24 19.92 37.11 30.99 55.04.47.75.71 1.62.76 2.53-.01 5.98.01 11.96-.01 17.93.05.8-.19 1.49-.73 2.08z"
          style="fill:#fec86e" transform="translate(9.62 26.695)"/>
    <path d="M293.14 272.161H267.8c-6.78-11.1-13.69-22.12-18.56-34.26 4.08-4.09 8.16-8.18 12.23-12.27.18-.53.53-.9 1.06-1.09l.21-.24c.23-.53.59-.92 1.12-1.15l.19-.19c.23-.53.62-.91 1.15-1.15l.14-.14c2.92-.5 3.76 1.85 4.8 3.69 7.39 13.07 14.87 26.1 21.72 39.46 1.13 2.23 3.2 4.5 1.28 7.34z"
          style="fill:#fefeac" transform="translate(9.62 26.695)"/>
    <path d="M293.14 272.161c-9.27-16.82-18.54-33.64-27.8-50.46 1.79-1.81 3.58-3.61 5.37-5.42h10.86c10.13 18.72 20.18 37.3 30.23 55.88z"
          class="st34" style="fill:#fef99e" transform="translate(9.62 26.695)"/>
    <path d="M378.47 293.671c-2.41-3.09-5.28-5.93-7.17-9.32-12.48-22.39-24.74-44.9-37-67.22-2.33-.72-4.37-1.35-6.42-1.98h13.35c2.08.99 4.44-.1 7.33 1.18 4.76 7.68 9.22 16.35 13.9 24.88 5.54 10.09 11.62 19.89 16.71 30.24-.43 7.41.92 14.86-.7 22.22z"
          class="st35" style="fill:#febd66" transform="translate(9.62 26.695)"/>
    <path d="M322.41 293.651c4.47 6.67 9.26 13.16 13.35 20.06 6.5 10.97 12.53 22.22 18.76 33.35-3.56 3.56-7.12 7.12-10.67 10.69-6.04-3.77-7.55-10.71-10.99-16.23-3.72-5.98-7.17-12.19-10.41-18.48-.02-9.8-.03-19.59-.04-29.39z"
          style="fill:#fef99d" transform="translate(9.62 26.695)"/>
    <path d="M378.46 269.651c-4.32-6.47-8.99-12.74-12.89-19.46-6.33-10.88-12.16-22.05-18.24-33.17-2-.62-4.04-1.25-6.09-1.88 4.89 0 9.78 0 14.67-.01 2.52 1.04 5.28-.13 7.81.84 13.06 15.67 18.86 33.31 14.74 53.68z"
          style="fill:#fead59" transform="translate(9.62 26.695)"/>
    <path d="M322.44 323.031c2.63 3.46 5.62 6.71 7.83 10.43 4.74 7.97 9.07 16.18 13.57 24.29-7.02 6.69-14.05 13.38-21.4 20.38z"
          style="fill:#fefdab" transform="translate(9.62 26.695)"/>
    <path d="M249.23 237.901c6.19 11.42 12.37 22.84 18.56 34.26-5.34 0-10.67 0-16.01-.01-4.17-8.1-10.47-15.12-12.26-24.41 3.24-3.28 6.48-6.56 9.71-9.84z"
          style="fill:#f6f6b6" transform="translate(9.62 26.695)"/>
    <path d="M378.46 269.651v-25.62c-5.38-9.52-10.28-18.18-15.31-27.06-2.24-.57-4.74-1.2-7.24-1.83h23.57v98.47c-.28.01-.57.02-.85.02-.05-6.66-.11-13.31-.16-19.97 0-7.99-.01-16-.01-24.01z"
          style="fill:#fa9d4f" transform="translate(9.62 26.695)"/>
    <path d="M239.53 247.741c4.09 8.14 8.17 16.27 12.26 24.41h-14.67c-3.77-3.86-5.62-8.93-8.49-13.37 3.63-3.67 7.26-7.36 10.9-11.04z"
          style="fill:#eeeabb" transform="translate(9.62 26.695)"/>
    <path d="M228.63 258.791c2.83 4.46 5.66 8.91 8.49 13.37h-20.58l-1.24-1.21c4.44-4.06 8.88-8.11 13.33-12.16z"
          style="fill:#e1d6c1" transform="translate(9.62 26.695)"/>
    <path d="M378.63 313.641c.28.03.57.02.85-.02-.29 3.19-.57 6.38-.86 9.57l-.18-8.12c.07-.48.13-.95.19-1.43z"
          class="st35" style="fill:#febd66" transform="translate(9.62 26.695)"/>
    <path d="M262.53 224.551c-.35.36-.71.72-1.06 1.09.35-.37.71-.73 1.06-1.09zm1.33-1.39c-.37.38-.75.76-1.12 1.15.37-.38.75-.76 1.12-1.15z"
          class="st34" style="fill:#fef99e" transform="translate(9.62 26.695)"/>
    <path d="M370.58 331.201c.47-.48.93-.96 1.4-1.43z" class="st31" style="fill:#fed77a"
          transform="translate(9.62 26.695)"/>
    <path d="m265.19 221.831-1.15 1.15z" class="st34" style="fill:#fef99e" transform="translate(9.62 26.695)"/></svg>
